<?xml version="1.0" encoding="UTF-8" standalone="no"?>
<!-- Created with Inkscape (http://www.inkscape.org/) -->

<svg
   version="1.1"
   id="svg25"
   xml:space="preserve"
   width="350"
   height="350"
   viewBox="0 0 350 350.00001"
   sodipodi:docname="BSTU-Logo.svg"
   inkscape:version="1.1.1 (eb90963e84, 2021-10-02)"
   xmlns:inkscape="http://www.inkscape.org/namespaces/inkscape"
   xmlns:sodipodi="http://sodipodi.sourceforge.net/DTD/sodipodi-0.dtd"
   xmlns="http://www.w3.org/2000/svg"
   xmlns:svg="http://www.w3.org/2000/svg"><defs
     id="defs29" /><sodipodi:namedview
     id="namedview27"
     pagecolor="#ffffff"
     bordercolor="#666666"
     borderopacity="1.0"
     inkscape:pageshadow="2"
     inkscape:pageopacity="0.0"
     inkscape:pagecheckerboard="0"
     showgrid="false"
     inkscape:zoom="2.1585235"
     inkscape:cx="133.65618"
     inkscape:cy="170.25527"
     inkscape:window-width="1870"
     inkscape:window-height="1016"
     inkscape:window-x="50"
     inkscape:window-y="27"
     inkscape:window-maximized="1"
     inkscape:current-layer="g31"
     height="54px"
     units="px"
     width="54mm" /><g
     id="g31"
     inkscape:groupmode="layer"
     inkscape:label="ink_ext_XXXXXX"
     transform="matrix(1.3333333,0,0,-1.3333333,-164.33234,373.50692)"><g
       id="g33"
       transform="matrix(0.09373149,0,0,0.09373149,-140.83521,17.617012)"><path
         d="m 3580.9,928.301 h -9.81 c -13.04,0 -23.63,-0.66 -31.83,-1.992 V 743.301 c 48.44,-3.781 80.19,2.109 95.31,17.699 15.08,15.551 22.62,40.27 22.62,74.141 0,62.109 -25.43,93.16 -76.29,93.16 z m 328.71,60 c -8.36,0 -16.56,-2.531 -24.49,-7.653 -7.97,-5.117 -14.46,-12.418 -19.49,-21.878 -5.04,-9.45 -7.54,-20.071 -7.54,-31.829 V 814.32 c 0,-27.269 3.94,-47.34 11.91,-60.308 7.89,-12.973 20.2,-19.461 36.84,-19.461 17.18,0 30.31,10.711 39.37,32.109 9.06,21.371 13.59,51.922 13.59,91.61 0,44.14 -4.06,76.832 -12.18,98.121 -8.13,21.25 -20.82,31.91 -38.01,31.91 z m 1394.26,466.569 c -91.06,49.96 -146.96,126.68 -155.74,243.67 3.32,160.23 78.39,222.3 149.14,257.66 0,66.4 0,558.63 -0.55,639.02 v 5.47 c 0,4.26 0,6.13 0,6.13 l -0.55,-0.62 c -5.47,119.37 -99.8,198.59 -328.98,194.33 -274.65,-18.91 -460.55,-63.36 -740.16,-208.98 384.92,132.85 722.66,152.34 845.43,74.33 37.85,-27.42 58.67,-71.29 62.54,-126.72 h -250 c -26.91,0 -48.83,-11.56 -48.83,-26.17 v -73.75 h -155.74 v 73.75 c 0,14.61 -21.91,26.17 -48.24,26.17 h -256.56 c -26.88,0 -48.79,-11.56 -48.79,-26.17 v -73.75 h -155.16 v 73.75 c 0,14.61 -21.95,26.17 -48.83,26.17 h -255.47 c -26.83,0 -48.79,-11.56 -48.79,-26.17 V 2341.2 l 108.01,-151.1 -7.69,-573.83 c -154.57,-32.3 -308.09,-33.51 -444.61,13.44 -357.46,158.36 76.75,587.19 292.77,757.81 -594.88,-325.93 -990.16,-974.68 -159.57,-918.08 82.27,8.55 158.48,20.11 229.73,34.76 1.09,0.63 2.18,0.63 3.32,1.21 73.98,17.04 147.46,36.53 219.25,59.69 25.79,20.74 44.46,53.01 61.96,78.01 -26.88,22.5 -55.9,73.71 3.32,158.98 52.07,73.09 57.58,100.51 82.77,196.18 18.67,-38.4 29.61,-136.53 30.7,-177.9 7.7,-112.69 -42.73,-183.39 -93.75,-183.39 -12.07,-18.28 -22.5,-37.15 -36.21,-56.02 42.23,14.61 83.95,29.84 124.5,46.91 l 20.86,52.39 c -6.06,4.84 -9.34,12.77 -8.25,21.91 2.19,13.99 13.71,25.59 26.33,25 12.62,0 21.37,-11.6 19.73,-25.58 -2.19,-13.44 -13.17,-24.42 -25.24,-25 l -15.86,-42.04 c 23.01,9.77 46.02,20.08 68.52,30.47 13.71,20.08 27.42,42.66 39.49,65.75 -25.78,17.69 -49.92,55.46 -2.19,131.6 44.93,72.5 47.66,103.59 66.33,195 19.18,-34.77 35.08,-126.17 38.95,-164.53 2.69,-98.68 -34.57,-149.85 -82.27,-163.87 -8.79,-16.45 -18.08,-32.93 -29.06,-49.3 43.87,21.29 86.05,43.83 126.64,67.58 l 19.22,50.59 c -6.06,3.63 -9.92,10.93 -8.79,20.07 2.19,12.19 12.58,21.92 23.55,21.92 10.98,0 18.64,-10.31 17,-22.5 -1.64,-10.98 -9.85,-20.12 -19.18,-21.92 l -14.26,-37.81 c 22.5,13.4 44.96,27.42 66.33,41.45 17.54,25.54 34.02,56.01 47.73,87.11 -23.59,17.65 -44.96,63.94 -0.54,143.75 38.9,73.12 40,93.79 45.42,183.36 20.9,-31.65 41.68,-119.38 47.74,-155.9 12.66,-99.96 -21.41,-158.44 -72.34,-174.26 -7.15,-18.91 -15.9,-37.74 -25.79,-54.84 42.19,29.84 82.78,61.52 121.18,95 l 13.71,56.68 c -6.02,2.46 -9.89,9.76 -8.79,17.69 1.68,9.77 9.88,17.66 19.22,17.66 9.33,0 15.35,-8.52 13.67,-18.28 -1.1,-7.93 -5.98,-14.03 -12.07,-17.07 l -7.66,-40.79 c 16.45,15.24 32.89,30.47 48.83,46.29 9.3,22.5 16.41,46.88 21.91,71.92 -26.32,6.05 -40.03,35.27 -22.5,109.61 20.32,64.57 18.13,79.18 13.72,151.09 22.5,-20.7 48.82,-58.48 63.63,-110.86 21.37,-71.29 1.09,-132.23 -39.49,-148.67 -1.64,-13.99 -5.51,-29.26 -10.47,-45.67 31.83,33.48 62.54,68.83 90.5,105.98 l 8.21,58.48 c -6.56,2.42 -10.39,9.14 -9.3,17.65 1.64,9.77 9.84,17.66 19.14,17.66 8.83,0 15.39,-8.52 13.71,-18.24 -1.09,-7.35 -6.01,-14.03 -11.99,-16.49 l -5.55,-39.57 c 17,23.13 33.48,46.92 48.83,71.29 -14.26,20.12 -28.51,53.01 -1.09,101.72 36.72,54.85 38.36,73.13 55.39,143.13 15.86,-34.07 29.02,-97.46 31.25,-127.31 1.09,-67.58 -26.37,-124.88 -75.67,-124.26 -12.65,-20.11 -25.23,-40.19 -38.9,-59.72 l 20.78,2.42 c 2.23,8.59 9.88,14.65 18.12,14.65 9.34,0 15.36,-8.52 13.72,-18.87 -1.14,-9.73 -9.89,-17.69 -18.68,-17.69 -6.01,0 -10.93,3.67 -13.16,9.14 l -30.16,-3.6 c -25.19,-35.97 -52.61,-70.7 -81.09,-103.59 13.63,-1.84 27.42,-2.46 41.05,-1.84 4.42,26.21 14.85,51.17 78.99,63.36 52.07,1.84 70.15,14.03 127.15,44.49 -16.96,-45.11 -52.03,-100.54 -79.46,-120.62 -57.03,-42.07 -106.91,-32.89 -126.68,-0.63 -17.5,-3 -37.81,-4.25 -56.99,-3 -19.72,-21.96 -40.04,-43.32 -61.4,-64.03 l 31.25,-3.63 c 3.28,6.68 9.88,12.23 16.99,11.56 9.29,0 15.35,-7.93 14.29,-18.24 -1.67,-10.35 -9.88,-18.28 -19.25,-18.28 -6.57,0 -11.49,4.88 -13.13,10.98 l -42.77,5.43 c -38.91,-37.78 -80,-72.43 -122.81,-105.98 16.48,-4.26 31.79,-7.31 50.46,-10.35 13.72,31.68 32.35,59.1 117.86,35.93 63.08,-28 89.37,-23.75 167.22,-20.07 -28.51,-38.4 -95.35,-78.01 -133.75,-85.28 -85.58,-15.23 -129.96,10.94 -149.14,49.3 -27.42,3.09 -51.52,7.34 -74.57,14.02 -25.78,-18.86 -51.52,-37.15 -78.4,-54.22 l 29.61,-6.09 c 4.38,7.93 12.07,13.4 20.28,12.81 10.93,0 18.67,-10.35 17.03,-22.54 -1.68,-12.18 -12.07,-21.91 -23.6,-21.91 -9.84,0 -16.99,7.89 -16.99,18.24 l -43.32,8.56 c -41.68,-26.8 -84.45,-51.8 -128.32,-74.96 12.66,-9.73 25.24,-18.29 38.4,-25.55 17.03,31.64 41.09,57.23 125,32.89 64.69,-31.09 92.66,-26.21 175.43,-22.58 -37.81,-42.62 -93.71,-74.3 -150.2,-86.48 -86.6,-18.28 -140.35,9.76 -155.15,56.05 -20.31,7.89 -40.04,19.49 -58.67,32.89 -23.05,-12.22 -47.15,-23.75 -71.25,-34.72 l 32.34,-11.61 c 5.47,6.1 12.58,10.4 20.23,10.4 12.62,-0.63 21.41,-11.57 19.77,-26.22 -2.19,-13.98 -14.26,-24.96 -26.84,-24.96 -12.61,0.59 -21.4,12.19 -19.18,26.18 0,0 0,0.62 0,1.21 l -45,15.86 c -47.69,-21.33 -96.48,-40.82 -145.86,-59.11 15.9,-12.18 32.39,-23.12 48.29,-32.26 26.83,31.09 62.5,60.9 146.36,-4.26 59.22,-59.73 88.83,-65.82 174.38,-96.25 -40,-20.12 -134.88,-30.47 -174.38,-31.09 -109.65,-6.06 -156.79,60.93 -154.06,112.11 -24.14,10.35 -48.79,24.37 -71.84,40.78 -60.85,-21.29 -122.26,-40.2 -184.76,-56.64 v -0.63 c -16.41,-4.26 -33.44,-8.51 -50.98,-12.15 -10.43,-2.42 -20.82,-4.88 -31.25,-7.3 -0.54,0 -0.54,0 -0.54,0 -203.4,-43.28 -435.86,-65.82 -708.36,-60.35 -2.15,-208.28 -17,-401.37 57.57,-599.378 79.5,-210.781 263.17,-344.801 438.6,-442.262 C 3833.4,263.301 4042.27,170.102 4217.19,0.140625 4408.55,165.84 4588.36,254.789 4812.62,363.23 c 178.2,98.668 359.65,227.809 438.59,442.262 79.49,208.948 62.5,428.868 52.66,649.378 z M 3595,704.551 h -172.77 v 22.5 c 12.89,3.789 21.09,9.379 24.65,16.84 3.55,7.461 5.31,22.418 5.31,44.879 v 287.5 c 0,22.89 -1.68,37.93 -5.04,45.04 -3.36,7.11 -11.68,12.78 -24.92,16.99 v 22.5 h 295.78 v -112.5 h -38.75 c -8.44,31.57 -16.6,51.76 -24.57,60.55 -7.93,8.79 -20.31,13.2 -37.15,13.2 h -78.28 V 966.469 c 25.43,2.89 46.99,4.332 64.76,4.332 46.92,0 82.03,-10.66 105.32,-32.031 23.28,-21.36 34.92,-55.27 34.92,-101.75 0,-88.321 -49.77,-132.469 -149.26,-132.469 z m 435.04,72.82 c -9.81,-25.902 -24.38,-45.351 -43.79,-58.32 -19.41,-13.012 -43.28,-19.5 -71.64,-19.5 -19.22,0 -38.09,2.929 -56.52,8.719 v -63.168 c 0,-16.68 0.7,-28.481 2.22,-35.391 1.49,-6.91 4.14,-12.34 7.97,-16.371 3.83,-4.02 10.59,-7.34 20.35,-10.039 v -22.5 h -139.37 v 22.5 c 8.83,3.129 14.92,6.57 18.4,10.359 3.43,3.789 5.89,9.059 7.38,15.82 1.52,6.829 2.26,18.668 2.26,35.579 v 292.152 c 0,15.781 -0.15,27.031 -0.42,33.711 -0.28,6.68 -0.94,12.348 -1.96,17.027 -1.01,4.653 -2.5,8.481 -4.37,11.492 -1.88,3.009 -4.61,5.619 -8.25,7.849 -3.63,2.23 -9.02,4.22 -16.09,6.01 v 22.5 l 77.5,2.5 h 34.38 l -4.22,-48.628 3.36,-1.012 c 16.01,18.47 31.01,31.79 44.92,39.96 13.9,8.12 28.2,12.18 42.97,12.18 33.2,0 58.12,-13.94 74.72,-41.831 16.61,-27.887 24.93,-69.571 24.93,-125.117 0,-38.442 -4.93,-70.582 -14.73,-96.481 z m 300,257.179 h -38.75 c -10.16,40 -19.18,64.61 -27.11,73.75 -7.93,9.18 -19.18,13.75 -33.75,13.75 h -53.32 V 789.051 c 0,-23.25 1.95,-38.68 5.86,-46.25 3.94,-7.582 13.24,-12.852 28.01,-15.75 v -22.5 h -150.9 v 22.5 c 12.85,3.789 21.05,9.379 24.61,16.84 3.55,7.461 5.35,22.5 5.35,45.199 v 287.18 c 0,22.89 -1.68,37.93 -5.04,45.04 -3.4,7.11 -11.72,12.78 -24.92,16.99 v 22.5 h 269.96 z m 364.45,8.75 h -38.75 c -3.55,15.28 -6.33,26.49 -8.36,33.68 -2.07,7.14 -4.33,13.28 -6.83,18.32 -2.5,5.04 -5.16,9.25 -7.93,12.61 -2.82,3.36 -5.78,6.06 -8.95,8.09 -3.16,2.03 -7.11,3.52 -11.83,4.53 -4.73,1.02 -10.94,1.52 -18.56,1.52 h -20.04 V 788.891 c 0,-11.801 0.28,-20.782 0.82,-26.911 0.59,-6.14 1.6,-11.101 3.09,-14.89 1.48,-3.789 3.32,-6.828 5.47,-9.18 2.15,-2.34 5.15,-4.449 8.98,-6.32 3.83,-1.918 8.99,-3.399 15.55,-4.539 v -22.5 h -154.88 v 22.5 c 7.85,1.57 14.06,3.64 18.63,6.179 4.57,2.571 8.01,6.168 10.23,10.86 2.23,4.68 3.64,10.66 4.22,17.89 0.55,7.219 0.82,16.211 0.82,26.911 v 333.159 h -22.5 c -11.09,0 -19.61,-1.56 -25.54,-4.68 -5.94,-3.17 -11.1,-8.09 -15.43,-14.81 -4.34,-6.76 -8.09,-15.78 -11.25,-27.11 -3.17,-11.33 -5.75,-22.07 -7.78,-32.15 h -38.75 v 117.5 h 329.57 z m 368.6,95 c -10.51,-2.65 -19.81,-10.27 -27.97,-22.85 -8.17,-12.54 -17.58,-30.93 -28.24,-55.15 l -93.52,-235.71 c -17.03,-42.731 -33.87,-74.68 -50.51,-95.82 -16.64,-21.129 -38.16,-31.719 -64.53,-31.719 -14.77,0 -32.34,3.289 -52.73,9.769 v 93.981 h 41.25 c 0.93,-29.18 9.76,-43.75 26.56,-43.75 20.15,0 38.51,20.508 55.12,61.531 l -98.09,252.378 c -9.96,25.55 -17.85,43.01 -23.75,52.34 -5.9,9.34 -13.36,14.34 -22.34,15 v 22.5 h 149.29 v -22.5 c -14.37,-2.22 -21.56,-10.66 -21.56,-25.31 0,-8.44 5,-25.97 14.96,-52.62 l 48.28,-132.608 46.29,129.608 c 8.24,23.08 12.38,41.29 12.38,54.65 0,16.64 -7.26,25.39 -21.83,26.28 v 22.5 h 110.94 z"
         style="fill:#006bb4;fill-opacity:1;fill-rule:evenodd;stroke:none"
         id="path37" /></g></g></svg>
